Patient4_TMGait_0pt7_02_left_29_EMG.mot
version=1
nRows=16
nColumns=33
inDegrees=no
endheader
time	1LAddLong	2LGlutMax	3LGlutMed	4LIliopsoas	5LSemiMemb	6LBicFemLong	7LRecFem	8LVastMed	9LVastLat	10LGasMed	11LTibAnt	12lTibPost	13LPeroneusLong	14LSol	15LExtDigLong	16LFlexDigLong	17RAddLong	18RGlutMax	19RGlutMed	20RIliopsoas	21RSemiMemb	22RBicFemLong	23RRecFem	24RVastMed	25RVastLat	26RGasMed	27RTibAnt	28RTibPost	29RPeroneusLong	30RSol	31RExtDigLong	32RFlexDigLong
33.06	0.001068	-0.40527	-0.014343	0.041046	-0.028229	-0.051422	-0.056763	0.011444	-0.18127	0.02182	0.019836	0.011292	0.001526	0.015564	0.22415	-0.022888	-0.024719	-0.10971	-0.57953	-0.040588	-0.14343	-0.006561	-0.14297	-0.005035	-0.096588	-0.002747	0.7785	-0.01236	-0.16876	0.19806	-0.002899	-0.001221
33.061	0.010376	-0.39749	-0.027161	0.017548	-0.019379	-0.065002	-0.063782	0.011597	-0.1033	0.020447	0.057373	0.009155	-0.006561	0.049896	-0.10407	-0.021515	-0.019379	-0.13702	-0.54489	-0.015259	-0.1329	-0.21668	-0.12878	0.14938	0.071106	-0.002594	0.34424	-0.004578	-1.2474	0.089874	0.001526	-0.003815
33.062	0.00351	-0.41611	-0.031891	0.013275	-0.00824	-0.074921	-0.059357	0.007324	-0.028687	0.04303	0.12222	0.015411	0.015259	0.068054	-0.074921	-0.034485	-0.023193	-0.1947	-0.57602	-0.054932	-0.035706	-0.24262	-0.070343	0.16281	0.10437	0.002136	-0.44861	-0.003815	-0.21606	-0.041809	0.001373	-0.007324
33.063	0.006866	-0.39856	-0.032043	-0.012512	-0.016022	-0.07782	-0.07431	0.007477	0.038605	0.065765	0.14984	0.013123	0.039673	0.065918	-0.013428	-0.01236	-0.018768	-0.16251	0.25803	-0.13855	-0.050964	0.15228	-0.26291	0.1506	0.18692	-0.014343	-0.64484	-0.005035	-0.49316	-0.052948	0.000153	-0.016785
33.064	0.005798	-0.41199	-0.018158	0.015869	-0.028534	-0.064392	-0.069122	0.00885	0.065613	0.070801	0.1152	0.005798	-0.036469	0.020599	-0.053711	-0.004425	-0.010681	-0.14481	0.65628	-0.15686	-0.044098	0.30533	-0.15961	0.1532	0.18921	-0.022888	-0.39719	0.005188	0.8284	0.04425	-0.001221	-0.009155
33.065	0.008087	-0.43243	-0.033569	0.04776	-0.006409	-0.037079	-0.04715	0.010071	0.096741	0.024261	0.046234	0.011292	-0.082397	-0.055237	-0.16388	-0.01358	0.014038	-0.11124	-0.2655	-0.029907	-0.037537	-0.000305	-0.10346	0.17899	0.19028	-0.011444	-0.26871	-0.003815	0.86853	0.083008	-0.001068	-0.00885
33.066	0.006866	-0.41733	-0.039673	0.042725	-0.011292	-0.021667	-0.030212	0.016632	0.1178	-0.032654	0.035095	0.012512	-0.072174	-0.14954	0.36636	-0.016327	0.032501	-0.06012	-0.52506	0.15411	-0.013123	-0.22644	0.14496	0.13611	0.13702	-0.001526	0.018311	0.000153	-0.5806	0.018463	0.000458	-0.007782
33.067	-0.000153	-0.37811	-0.048218	0.050049	0.000458	-0.007477	-0.036621	0.01358	0.14084	-0.058289	0.055389	0.010223	-0.10315	-0.1152	0.002594	-0.01358	0.053101	0.010834	-0.20218	0.17303	-0.034332	-0.34836	0.28519	-0.049286	0.052032	0.003357	0.021057	-0.000763	0.74341	0.004578	0.001068	0.000153
33.068	0.005951	-0.34409	-0.045624	0.041046	-0.00473	0.03006	-0.037689	0.007324	0.15442	-0.085297	-0.12222	0.005341	-0.000458	-0.059967	0.036316	-0.016785	0.05722	-0.025787	0.43411	0.090637	-0.058441	-0.35767	0.43747	-0.12024	-0.027618	-0.005341	-0.20569	-0.000153	2.1281	0.094299	0.000763	0.000916
33.069	0.002136	-0.32044	-0.041656	0.010376	-0.0354	0.019836	-0.040283	0.008392	0.18951	-0.08255	-0.11047	0.007629	0.048676	-0.081635	0.13123	-0.01709	0.071106	-0.083923	0.95642	0.049896	-0.043945	-0.10651	0.49164	-0.11612	-0.009155	-0.015564	-0.13733	-0.001221	0.12344	0.11246	-0.002747	0.007935
33.07	-0.000916	-0.31082	-0.052338	0.004883	-0.050507	-0.015869	-0.028534	0.007019	0.21027	-0.036469	0.15015	0.022278	-0.003662	-0.099182	0.13214	0	0.058136	-0.08728	0.95551	0.080109	0.004883	0.078735	0.41214	-0.051727	0.34424	-0.021515	-0.20828	-0.001526	-0.60028	0.089417	-0.003967	0.001526
33.071	0.00351	-0.25055	-0.051117	0.021515	-0.043335	-0.041199	-0.0383	0.011444	0.22507	-0.02533	0.32074	0.00885	0.015411	-0.077362	0.23727	-0.003662	0.018463	-0.080414	0.81955	0.007782	-0.002289	-0.038452	0.13016	0.14343	0.42831	-0.021057	-0.27771	0.001526	-0.079346	0.1033	-0.007935	0.00824
33.072	0.005035	-0.22034	-0.053558	0.006256	-0.040436	-0.051575	-0.03067	0.009918	0.23575	-0.017548	0.20813	0.011902	0.11032	-0.02655	0.13062	-0.00824	-0.046539	-0.013885	0.62012	-0.047607	0.035858	-0.075684	-0.22583	0.27161	0.57754	-0.013885	-0.10635	-0.000916	-0.88547	-0.18784	-0.005188	0.007629
33.073	0.005188	-0.21194	-0.067444	0.026245	-0.006714	-0.070496	-0.026245	0.014496	0.2504	-0.029755	-0.24567	0.00885	0.13962	-0.050049	0.44128	0.001373	-0.07431	0.025482	0.45548	-0.009308	-0.11078	-0.08667	-0.43289	0.13763	0.62225	-0.010834	0.17273	-0.003357	-1.7461	-0.12161	-0.005035	0.01297
33.074	0.003357	-0.20172	-0.057373	0.016479	-0.019379	-0.05249	-0.002136	0.015717	0.24185	-0.01358	-0.2356	0.001526	0.10437	-0.084991	-0.12756	-0.018463	-0.077972	-0.042725	0.15686	0.081329	-0.12253	-0.026855	-0.31372	-0.051727	0.29984	-0.000153	0.40848	0.001678	-0.48523	-0.10391	-0.004883	0.00061
33.075	0.005798	-0.19959	-0.061035	0.000916	-0.016479	-0.052032	0.000916	0.009155	0.24414	0.007019	-0.065002	0.009003	0.10696	-0.065613	-0.075073	-0.014343	-0.03891	-0.043182	0.44525	-0.012512	-0.1178	0.056763	-0.2182	-0.14572	-0.10178	-0.006409	0.62424	-0.001068	1.0681	-0.11887	-0.005493	0.003815
